<svg width="200" height="200" viewBox="0 0 200 200" xmlns="http://www.w3.org/2000/svg">
  <!-- Background Circle -->
  <circle cx="100" cy="100" r="95" fill="url(#gradient)" stroke="none"/>
  
  <!-- Gradient Definition -->
  <defs>
    <linearGradient id="gradient" x1="0%" y1="0%" x2="100%" y2="100%">
      <stop offset="0%" style="stop-color:#FB923C;stop-opacity:1" />
      <stop offset="100%" style="stop-color:#16A34A;stop-opacity:1" />
    </linearGradient>
  </defs>
  
  <!-- Food Icons -->
  <!-- Bowl -->
  <path d="M 60 90 Q 60 110 80 120 L 120 120 Q 140 110 140 90 Z" fill="white" opacity="0.9"/>
  <ellipse cx="100" cy="90" rx="40" ry="8" fill="white" opacity="0.8"/>
  
  <!-- Rice/Steam -->
  <circle cx="85" cy="85" r="3" fill="white" opacity="0.7"/>
  <circle cx="100" cy="83" r="2.5" fill="white" opacity="0.7"/>
  <circle cx="115" cy="85" r="3" fill="white" opacity="0.7"/>
  <circle cx="90" cy="88" r="2" fill="white" opacity="0.6"/>
  <circle cx="110" cy="88" r="2" fill="white" opacity="0.6"/>
  
  <!-- Steam lines -->
  <path d="M 85 75 Q 83 70 85 65" stroke="white" stroke-width="2" fill="none" opacity="0.6"/>
  <path d="M 100 73 Q 98 68 100 63" stroke="white" stroke-width="2" fill="none" opacity="0.6"/>
  <path d="M 115 75 Q 113 70 115 65" stroke="white" stroke-width="2" fill="none" opacity="0.6"/>
  
  <!-- Company Initials -->
  <text x="100" y="145" font-family="Arial, sans-serif" font-size="24" font-weight="bold" fill="white" text-anchor="middle">TW</text>
  
  <!-- Company Name (arc) -->
  <path id="textPath" d="M 40 100 A 60 60 0 0 1 160 100" fill="none"/>
  <text font-family="Arial, sans-serif" font-size="12" fill="white" text-anchor="middle">
    <textPath href="#textPath" startOffset="50%">TRI WAHYUNINGSIH</textPath>
  </text>
</svg>